<svg xmlns="http://www.w3.org/2000/svg" version="1.1" width="256" height="300" viewBox="36 47.8 185.5 201.6">
  <g>
    <path fill="#86bff5" d="M36 193 m15 12 l20 -9.6 v-132 l-20 9.6Z" />
    <path fill="#5da9ef"
      d="M36 193 m70.5 56.4 m50 -24 m0 -22 l-18 -14.4 l50 -24 l18 14.4 m-30 -29.6 l-18 -14.4 l45 -21.6 l18 14.4 Z" />
    <path fill="#0b77dd"
      d="M36 193 m70.5 56.4 m50 -24 l-18 -14.4 v-22 l18 14.4 m50 -24 l-18 -14.4 v-22 l18 14.4 m-30 -7.6 v22 l-18 -14.4 v-22" />
    <path fill="#86bff5" d="M36 193 m70.5 56.4 m50 -24 l65 -31.2 v-66 l-45 21.6 v22 l30 -14.4 v22 l-50 24Z" />
    <path fill="#5da9ef" d="M36 193 m0 -132 l25 -12 l52.5 42 l90 -43.2 l18 14.4 l-115 55.2Z" />
    <path fill="#86bff5" d="M36 193 m70.5 56.4 l25 -12 v-98 l90 -43.2 v-34 l-115 55.2 Z" />
    <path fill="#0b77dd" d="M63 148 l15 12 v21 l-15 -12 Z" />
    <path fill="#5da9ef" d="M63 148 l20 -9.6 l15 12 l -20 9.6Z" />
    <path fill="#86bff5" d="M63 148 m15 12 v21 l20 -9.6 v-21" />
    <path fill="#0b77dd" d="M36 193 l15 12 v-98 l37.5 30 v98 l18 14.4 v-132 l-70.5 -56.4 Z" />
  </g>
</svg>